<?xml version="1.0" standalone="no"?>
<!DOCTYPE svg PUBLIC "-//W3C//DTD SVG 20010904//EN"
 "http://www.w3.org/TR/2001/REC-SVG-20010904/DTD/svg10.dtd">
<svg version="1.0" xmlns="http://www.w3.org/2000/svg"
 width="1651.000000pt" height="570.000000pt" viewBox="0 0 1651.000000 570.000000"
 preserveAspectRatio="xMidYMid meet">

<g transform="translate(0.000000,570.000000) scale(0.100000,-0.100000)"
fill="#000000" stroke="none">
<path d="M3766 4054 c-25 -24 -20 -71 9 -90 59 -38 129 42 77 89 -23 21 -66
22 -86 1z"/>
<path d="M4316 4054 c-36 -36 -6 -104 46 -104 25 0 58 36 58 63 0 49 -70 76
-104 41z"/>
<path d="M3193 3811 c-40 -25 -56 -54 -56 -103 0 -94 96 -148 182 -103 40 20
65 75 57 124 -13 81 -113 126 -183 82z"/>
<path d="M3748 3815 c-36 -20 -58 -64 -58 -116 0 -33 6 -47 34 -75 33 -33 51
-39 106 -34 93 7 132 133 62 203 -36 36 -102 46 -144 22z"/>
<path d="M4302 3814 c-41 -21 -62 -60 -62 -115 0 -33 6 -47 34 -75 33 -33 52
-39 106 -34 37 3 59 17 80 53 64 105 -49 227 -158 171z"/>
<path d="M4854 3814 c-95 -47 -79 -195 24 -223 136 -38 213 163 86 224 -40 19
-71 19 -110 -1z"/>
<path d="M6860 3100 l0 -691 138 3 137 3 5 310 c5 287 6 313 25 344 31 53 67
74 133 79 68 5 111 -13 139 -55 16 -24 19 -64 23 -353 l5 -325 140 0 140 0 3
240 c5 405 -16 537 -95 619 -65 67 -108 81 -258 81 -115 0 -135 -2 -172 -22
-22 -12 -51 -34 -62 -49 l-21 -27 0 267 0 266 -140 0 -140 0 0 -690z"/>
<path d="M10030 3100 l0 -690 140 0 140 0 0 178 c0 158 2 181 18 195 16 15 27
3 168 -176 l150 -192 172 -3 c95 -1 172 1 172 6 0 4 -100 131 -222 282 l-221
273 24 20 c13 10 113 94 223 186 l198 166 -206 3 -206 2 -133 -116 -132 -116
-3 336 -2 336 -140 0 -140 0 0 -690z"/>
<path d="M3700 3389 c-147 -59 -182 -250 -66 -357 99 -91 248 -73 322 38 32
48 43 129 24 185 -16 49 -66 104 -115 126 -43 20 -125 24 -165 8z"/>
<path d="M4314 3387 c-85 -33 -137 -109 -137 -201 0 -180 214 -278 351 -160
79 67 96 199 38 283 -52 75 -166 110 -252 78z"/>
<path d="M11401 3358 c-92 -10 -217 -67 -275 -126 l-38 -40 103 -61 c101 -59
104 -60 124 -42 36 33 62 41 132 41 46 0 76 -5 91 -16 22 -15 52 -63 52 -84 0
-6 -41 -10 -113 -10 -226 0 -360 -64 -422 -201 -24 -54 -27 -71 -23 -142 8
-186 110 -269 333 -271 93 -1 162 20 207 61 17 15 18 14 18 -21 l0 -37 138 3
137 3 3 339 c3 389 -1 412 -68 489 -82 93 -221 133 -399 115z m189 -602 c0
-89 -55 -137 -161 -139 -78 -2 -113 22 -117 83 -6 78 46 109 186 110 l92 0 0
-54z"/>
<path d="M6223 3336 c-148 -55 -227 -171 -208 -306 17 -127 144 -221 357 -265
92 -20 108 -29 108 -65 0 -37 -40 -60 -103 -60 -59 0 -109 22 -163 72 l-45 42
-92 -93 -92 -92 40 -34 c52 -45 164 -104 229 -121 97 -26 228 -12 325 34 100
47 169 163 158 267 -13 128 -89 190 -311 255 -130 38 -156 52 -156 90 0 87
134 87 234 -1 l46 -41 90 84 c49 45 90 86 90 89 0 12 -103 90 -150 114 -118
60 -249 71 -357 31z"/>
<path d="M8213 3345 c-238 -64 -387 -288 -354 -530 33 -238 234 -412 479 -414
306 -3 538 254 494 547 -30 196 -167 347 -359 397 -71 19 -191 18 -260 0z
m210 -229 c103 -44 160 -192 123 -320 -45 -155 -216 -215 -330 -116 -78 69
-105 224 -57 322 24 51 90 114 125 121 47 9 108 6 139 -7z"/>
<path d="M9332 3345 c-18 -8 -47 -24 -63 -35 l-29 -21 0 30 0 31 -140 0 -140
0 0 -685 0 -685 140 0 140 0 0 246 c0 135 3 244 8 242 135 -69 202 -81 315
-54 88 21 132 44 199 105 155 142 193 403 86 603 -43 82 -140 169 -226 203
-84 34 -236 45 -290 20z m153 -214 c88 -41 138 -131 139 -251 1 -63 -4 -84
-27 -132 -82 -168 -261 -179 -353 -22 -22 38 -29 63 -32 128 -2 45 1 100 7
123 24 89 120 173 196 173 16 0 48 -9 70 -19z"/>
<path d="M12410 3339 c-25 -11 -55 -30 -67 -41 l-23 -21 0 36 0 37 -140 0
-140 0 0 -470 0 -471 138 3 137 3 5 310 c6 354 7 360 90 403 44 23 94 25 185
10 17 -3 21 6 31 62 27 146 27 137 -8 149 -52 18 -157 13 -208 -10z"/>
<path d="M13006 3349 c-172 -43 -316 -187 -356 -358 -17 -74 -8 -211 20 -283
47 -125 151 -226 285 -278 77 -30 240 -34 325 -7 208 65 340 243 340 457 0
199 -116 371 -300 446 -53 22 -84 27 -170 30 -58 2 -122 -1 -144 -7z m236
-255 c120 -84 133 -301 23 -403 -86 -79 -184 -81 -266 -4 -56 52 -79 109 -79
194 0 152 93 255 223 246 43 -2 67 -10 99 -33z"/>
<path d="M3205 3266 c-41 -18 -68 -61 -68 -109 0 -47 26 -86 76 -110 30 -15
43 -16 76 -7 103 27 120 164 29 220 -38 23 -70 25 -113 6z"/>
<path d="M4864 3271 c-11 -5 -33 -24 -48 -42 -24 -29 -28 -39 -24 -81 8 -81
75 -128 151 -107 51 14 79 50 85 108 4 45 1 52 -29 85 -36 40 -93 55 -135 37z"/>
<path d="M2910 3200 c-39 -39 -14 -100 43 -100 55 0 79 73 35 104 -30 21 -54
20 -78 -4z"/>
<path d="M5174 3195 c-26 -27 -26 -55 1 -84 20 -21 66 -17 87 9 24 30 23 46
-7 75 -31 32 -50 31 -81 0z"/>
<path d="M3681 2764 c-157 -79 -156 -300 2 -379 80 -40 163 -30 233 28 98 81
98 238 1 324 -67 58 -153 68 -236 27z"/>
<path d="M4305 2771 c-95 -44 -145 -143 -124 -243 20 -90 116 -168 209 -168
115 0 210 97 210 215 0 155 -158 260 -295 196z"/>
<path d="M3201 2713 c-47 -23 -74 -85 -60 -136 11 -41 55 -82 98 -92 65 -14
141 51 141 120 0 43 -35 94 -75 111 -44 18 -62 17 -104 -3z"/>
<path d="M4864 2721 c-11 -5 -33 -24 -48 -42 -24 -29 -28 -39 -24 -81 15 -153
221 -152 236 1 4 45 1 52 -29 85 -36 40 -93 55 -135 37z"/>
<path d="M2930 2663 c-45 -16 -52 -72 -13 -102 43 -34 93 -7 93 50 0 41 -40
66 -80 52z"/>
<path d="M5174 2645 c-18 -19 -23 -31 -19 -48 16 -53 64 -69 100 -33 31 31 32
50 0 81 -31 32 -50 31 -81 0z"/>
<path d="M3203 2164 c-20 -10 -40 -32 -53 -60 -19 -37 -20 -49 -10 -78 15 -45
55 -84 95 -92 69 -13 145 50 145 121 0 43 -35 94 -75 111 -43 18 -62 17 -102
-2z"/>
<path d="M3765 2170 c-29 -12 -64 -53 -74 -86 -17 -60 32 -138 94 -150 69 -13
145 51 145 121 0 80 -93 145 -165 115z"/>
<path d="M4304 2161 c-45 -28 -64 -59 -64 -107 0 -49 32 -94 80 -114 39 -16
96 -1 129 34 28 30 38 100 19 135 -32 60 -111 85 -164 52z"/>
<path d="M4864 2166 c-104 -46 -97 -190 11 -226 26 -9 44 -9 70 0 109 36 115
182 9 226 -41 17 -50 17 -90 0z"/>
<path d="M3767 1792 c-37 -40 -9 -102 46 -102 28 0 57 32 57 62 0 25 -36 58
-63 58 -13 0 -31 -8 -40 -18z"/>
<path d="M4317 1792 c-22 -24 -21 -65 1 -85 58 -53 137 28 82 83 -25 25 -62
26 -83 2z"/>
</g>
</svg>
